0
SECTION
2
HEADER
9
$ACADVER
1
AC1015
9
$INSUNITS
70
4
0
ENDSEC
0
SECTION
2
ENTITIES
0
LINE
5
10
8
WALLS
10
0
20
0
11
12000
21
0
0
LINE
5
11
8
WALLS
10
12000
20
0
11
12000
21
8200
0
LINE
5
12
8
WALLS
10
12000
20
8200
11
0
21
8200
0
LINE
5
13
8
WALLS
10
0
20
8200
11
0
21
0
0
LINE
5
14
8
WALLS
10
180
20
180
11
11820
21
180
0
LINE
5
15
8
WALLS
10
11820
20
180
11
11820
21
8020
0
LINE
5
16
8
WALLS
10
11820
20
8020
11
180
21
8020
0
LINE
5
17
8
WALLS
10
180
20
8020
11
180
21
180
0
LINE
5
18
8
WALLS
10
4100
20
180
11
4100
21
3600
0
LINE
5
19
8
WALLS
10
4280
20
180
11
4280
21
3600
0
LINE
5
1a
8
WALLS
10
8000
20
180
11
8000
21
4800
0
LINE
5
1b
8
WALLS
10
8180
20
180
11
8180
21
4800
0
LINE
5
1c
8
WALLS
10
180
20
4100
11
4800
21
4100
0
LINE
5
1d
8
WALLS
10
180
20
4280
11
4800
21
4280
0
LINE
5
1e
8
WALLS
10
6100
20
4100
11
11820
21
4100
0
LINE
5
1f
8
WALLS
10
6100
20
4280
11
11820
21
4280
0
TEXT
5
20
8
ANNOTATIONS
10
5100
20
2200
40
140
1
LIVING / DINING
0
TEXT
5
21
8
ANNOTATIONS
10
1000
20
2100
40
140
1
BEDROOM 01
0
TEXT
5
22
8
ANNOTATIONS
10
9300
20
6300
40
140
1
BEDROOM 02
0
TEXT
5
23
8
ANNOTATIONS
10
1200
20
6400
40
140
1
KITCHEN
0
TEXT
5
24
8
ANNOTATIONS
10
5200
20
6400
40
140
1
UTILITY
0
TEXT
5
25
8
ANNOTATIONS
10
4200
20
9000
40
140
1
LEVEL 12 - TYPICAL FLOOR
0
LINE
5
26
8
GRID
10
-500
20
-800
11
-500
21
8700
0
TEXT
5
27
8
GRID
10
-500
20
8800
40
140
1
1
0
LINE
5
28
8
GRID
10
3500
20
-800
11
3500
21
8700
0
TEXT
5
29
8
GRID
10
3500
20
8800
40
140
1
2
0
LINE
5
2a
8
GRID
10
7500
20
-800
11
7500
21
8700
0
TEXT
5
2b
8
GRID
10
7500
20
8800
40
140
1
3
0
LINE
5
2c
8
GRID
10
11500
20
-800
11
11500
21
8700
0
TEXT
5
2d
8
GRID
10
11500
20
8800
40
140
1
4
0
LINE
5
2e
8
DOOR_D14
10
4800
20
4100
11
5800
21
4100
0
LINE
5
2f
8
DOOR_D14
10
5800
20
4100
11
5800
21
4280
0
LINE
5
30
8
DOOR_D14
10
5800
20
4280
11
4800
21
4280
0
LINE
5
31
8
DOOR_D14
10
4800
20
4280
11
4800
21
4100
0
TEXT
5
32
8
DOOR_D14
10
5300
20
3830
40
140
1
D14
0
DIMENSION
5
33
8
DOOR_D14
70
32
10
4800
20
3650
13
4800
23
4100
14
5800
24
4100
42
1000
1
<>
0
LINE
5
34
8
DOOR_SWING
10
4800
20
4100
11
4800
21
5100
0
ARC
8
DOOR_SWING
10
4800
20
4100
40
1000
50
0
51
90
0
LINE
5
35
8
WINDOW_W03
10
1200
20
8000
11
2700
21
8000
0
LINE
5
36
8
WINDOW_W03
10
2700
20
8000
11
2700
21
8260
0
LINE
5
37
8
WINDOW_W03
10
2700
20
8260
11
1200
21
8260
0
LINE
5
38
8
WINDOW_W03
10
1200
20
8260
11
1200
21
8000
0
TEXT
5
39
8
WINDOW_W03
10
1950
20
7730
40
140
1
W03
0
DIMENSION
5
3a
8
WINDOW_W03
70
32
10
1200
20
7550
13
1200
23
8000
14
2700
24
8000
42
1500
1
<>
0
LINE
5
3b
8
BEAM_B02
10
8400
20
4300
11
8900
21
4300
0
LINE
5
3c
8
BEAM_B02
10
8900
20
4300
11
8900
21
4560
0
LINE
5
3d
8
BEAM_B02
10
8900
20
4560
11
8400
21
4560
0
LINE
5
3e
8
BEAM_B02
10
8400
20
4560
11
8400
21
4300
0
TEXT
5
3f
8
BEAM_B02
10
8650
20
4030
40
140
1
B02
0
DIMENSION
5
40
8
BEAM_B02
70
32
10
8400
20
3850
13
8400
23
4300
14
8900
24
4300
42
500
1
<>
0
LINE
5
41
8
DOOR_D08
10
7900
20
1400
11
8700
21
1400
0
LINE
5
42
8
DOOR_D08
10
8700
20
1400
11
8700
21
1580
0
LINE
5
43
8
DOOR_D08
10
8700
20
1580
11
7900
21
1580
0
LINE
5
44
8
DOOR_D08
10
7900
20
1580
11
7900
21
1400
0
TEXT
5
45
8
DOOR_D08
10
8300
20
1130
40
140
1
D08
0
DIMENSION
5
46
8
DOOR_D08
70
32
10
7900
20
950
13
7900
23
1400
14
8700
24
1400
42
800
1
<>
0
LINE
5
47
8
DOOR_SWING
10
7900
20
1400
11
7900
21
2200
0
ARC
8
DOOR_SWING
10
7900
20
1400
40
800
50
0
51
90
0
LINE
5
48
8
WALL_W12
10
4100
20
5000
11
4300
21
5000
0
LINE
5
49
8
WALL_W12
10
4300
20
5000
11
4300
21
5260
0
LINE
5
4a
8
WALL_W12
10
4300
20
5260
11
4100
21
5260
0
LINE
5
4b
8
WALL_W12
10
4100
20
5260
11
4100
21
5000
0
TEXT
5
4c
8
WALL_W12
10
4200
20
4730
40
140
1
W12
0
DIMENSION
5
4d
8
WALL_W12
70
32
10
4100
20
4550
13
4100
23
5000
14
4300
24
5000
42
200
1
<>
0
LINE
5
4e
8
DOOR_D21
10
6100
20
4200
11
7000
21
4200
0
LINE
5
4f
8
DOOR_D21
10
7000
20
4200
11
7000
21
4380
0
LINE
5
50
8
DOOR_D21
10
7000
20
4380
11
6100
21
4380
0
LINE
5
51
8
DOOR_D21
10
6100
20
4380
11
6100
21
4200
0
TEXT
5
52
8
DOOR_D21
10
6550
20
3930
40
140
1
D21
0
DIMENSION
5
53
8
DOOR_D21
70
32
10
6100
20
3750
13
6100
23
4200
14
7000
24
4200
42
900
1
<>
0
LINE
5
54
8
DOOR_SWING
10
6100
20
4200
11
6100
21
5100
0
ARC
8
DOOR_SWING
10
6100
20
4200
40
900
50
0
51
90
0
ENDSEC
0
EOF
